<?xml version="1.0" standalone="yes"?>

<svg version="1.1" viewBox="0.0 0.0 960.0 720.0" fill="none" stroke="none" stroke-linecap="square" stroke-miterlimit="10" xmlns="http://www.w3.org/2000/svg" xmlns:xlink="http://www.w3.org/1999/xlink">
	<clipPath id="p.0">
		<path d="m0 0l960.0 0l0 720.0l-960.0 0l0 -720.0z" clip-rule="nonzero">
		</path>
	</clipPath>
	<g clip-path="url(#p.0)">
		<path fill="#000000" fill-opacity="0.0" d="m0 0l960.0 0l0 720.0l-960.0 0z" fill-rule="evenodd">
		</path>
		<path fill="#e6b8af" d="m123.608925 232.01819l370.83466 -211.62973l370.83463 211.62973l-55.361877 0l0 466.323l-630.9455 0l0 -466.323z" fill-rule="evenodd">
		</path>
		<path stroke="#000000" stroke-width="1.0" stroke-linejoin="round" stroke-linecap="butt" d="m123.608925 232.01819l370.83466 -211.62973l370.83463 211.62973l-55.361877 0l0 466.323l-630.9455 0l0 -466.323z" fill-rule="evenodd">
		</path>
		<path fill="#ffffff" d="m196.24672 461.30972l270.17322 0l0 229.38583l-270.17322 0z" fill-rule="evenodd">
		</path>
		<path stroke="#000000" stroke-width="1.0" stroke-linejoin="round" stroke-linecap="butt" d="m196.24672 461.30972l270.17322 0l0 229.38583l-270.17322 0z" fill-rule="evenodd">
		</path>
		<path fill="#ffffff" d="m520.6378 461.30972l270.17322 0l0 229.38583l-270.17322 0z" fill-rule="evenodd">
		</path>
		<path stroke="#000000" stroke-width="1.0" stroke-linejoin="round" stroke-linecap="butt" d="m520.6378 461.30972l270.17322 0l0 229.38583l-270.17322 0z" fill-rule="evenodd">
		</path>
		<path fill="#ffffff" d="m196.24672 206.01837l270.17322 0l0 229.38583l-270.17322 0z" fill-rule="evenodd">
		</path>
		<path stroke="#000000" stroke-width="1.0" stroke-linejoin="round" stroke-linecap="butt" d="m196.24672 206.01837l270.17322 0l0 229.38583l-270.17322 0z" fill-rule="evenodd">
		</path>
		<path fill="#000000" fill-opacity="0.0" d="m264.4357 203.4672l133.79526 0l0 31.874008l-133.79526 0z" fill-rule="evenodd">
		</path>
		<path fill="#000000" d="m292.28235 230.38719l0 -13.59375l5.109375 0q1.546875 0 2.484375 0.40625q0.953125 0.40625 1.484375 1.265625q0.53125 0.859375 0.53125 1.796875q0 0.875 -0.46875 1.65625q-0.46875 0.765625 -1.4375 1.234375q1.234375 0.359375 1.890625 1.234375q0.671875 0.875 0.671875 2.0625q0 0.953125 -0.40625 1.78125q-0.390625 0.8125 -0.984375 1.265625q-0.59375 0.4375 -1.5 0.671875q-0.890625 0.21875 -2.1875 0.21875l-5.1875 0zm1.796875 -7.890625l2.9375 0q1.203125 0 1.71875 -0.15625q0.6875 -0.203125 1.03125 -0.671875q0.359375 -0.46875 0.359375 -1.1875q0 -0.671875 -0.328125 -1.1875q-0.328125 -0.515625 -0.9375 -0.703125q-0.59375 -0.203125 -2.0625 -0.203125l-2.71875 0l0 4.109375zm0 6.28125l3.390625 0q0.875 0 1.21875 -0.0625q0.625 -0.109375 1.046875 -0.359375q0.421875 -0.265625 0.6875 -0.765625q0.265625 -0.5 0.265625 -1.140625q0 -0.765625 -0.390625 -1.328125q-0.390625 -0.5625 -1.078125 -0.78125q-0.6875 -0.234375 -1.984375 -0.234375l-3.15625 0l0 4.671875zm17.256073 -1.5625l1.71875 0.21875q-0.40625 1.5 -1.515625 2.34375q-1.09375 0.828125 -2.8125 0.828125q-2.15625 0 -3.421875 -1.328125q-1.265625 -1.328125 -1.265625 -3.734375q0 -2.484375 1.265625 -3.859375q1.28125 -1.375 3.328125 -1.375q1.984375 0 3.234375 1.34375q1.25 1.34375 1.25 3.796875q0 0.140625 -0.015625 0.4375l-7.34375 0q0.09375 1.625 0.921875 2.484375q0.828125 0.859375 2.0625 0.859375q0.90625 0 1.546875 -0.46875q0.65625 -0.484375 1.046875 -1.546875zm-5.484375 -2.703125l5.5 0q-0.109375 -1.234375 -0.625 -1.859375q-0.796875 -0.96875 -2.078125 -0.96875q-1.140625 0 -1.9375 0.78125q-0.78125 0.765625 -0.859375 2.046875zm15.500702 5.875l0 -1.25q-0.9375 1.46875 -2.75 1.46875q-1.171875 0 -2.171875 -0.640625q-0.984375 -0.65625 -1.53125 -1.8125q-0.53125 -1.171875 -0.53125 -2.6875q0 -1.46875 0.484375 -2.671875q0.5 -1.203125 1.46875 -1.84375q0.984375 -0.640625 2.203125 -0.640625q0.890625 0 1.578125 0.375q0.703125 0.375 1.140625 0.984375l0 -4.875l1.65625 0l0 13.59375l-1.546875 0zm-5.28125 -4.921875q0 1.890625 0.796875 2.828125q0.8125 0.9375 1.890625 0.9375q1.09375 0 1.859375 -0.890625q0.765625 -0.890625 0.765625 -2.734375q0 -2.015625 -0.78125 -2.953125q-0.78125 -0.953125 -1.921875 -0.953125q-1.109375 0 -1.859375 0.90625q-0.75 0.90625 -0.75 2.859375zm14.434021 4.921875l0 -9.859375l1.5 0l0 1.5q0.578125 -1.046875 1.0625 -1.375q0.484375 -0.34375 1.078125 -0.34375q0.84375 0 1.71875 0.546875l-0.578125 1.546875q-0.609375 -0.359375 -1.234375 -0.359375q-0.546875 0 -0.984375 0.328125q-0.421875 0.328125 -0.609375 0.90625q-0.28125 0.890625 -0.28125 1.953125l0 5.15625l-1.671875 0zm5.603302 -4.921875q0 -2.734375 1.53125 -4.0625q1.265625 -1.09375 3.09375 -1.09375q2.03125 0 3.3125 1.34375q1.296875 1.328125 1.296875 3.671875q0 1.90625 -0.578125 3.0q-0.5625 1.078125 -1.65625 1.6875q-1.078125 0.59375 -2.375 0.59375q-2.0625 0 -3.34375 -1.328125q-1.28125 -1.328125 -1.28125 -3.8125zm1.71875 0q0 1.890625 0.828125 2.828125q0.828125 0.9375 2.078125 0.9375q1.25 0 2.0625 -0.9375q0.828125 -0.953125 0.828125 -2.890625q0 -1.828125 -0.828125 -2.765625q-0.828125 -0.9375 -2.0625 -0.9375q-1.25 0 -2.078125 0.9375q-0.828125 0.9375 -0.828125 2.828125zm8.656982 0q0 -2.734375 1.53125 -4.0625q1.265625 -1.09375 3.09375 -1.09375q2.03125 0 3.3125 1.34375q1.296875 1.328125 1.296875 3.671875q0 1.90625 -0.578125 3.0q-0.5625 1.078125 -1.65625 1.6875q-1.078125 0.59375 -2.375 0.59375q-2.0625 0 -3.34375 -1.328125q-1.28125 -1.328125 -1.28125 -3.8125zm1.71875 0q0 1.890625 0.828125 2.828125q0.828125 0.9375 2.078125 0.9375q1.25 0 2.0625 -0.9375q0.828125 -0.953125 0.828125 -2.890625q0 -1.828125 -0.828125 -2.765625q-0.828125 -0.9375 -2.0625 -0.9375q-1.25 0 -2.078125 0.9375q-0.828125 0.9375 -0.828125 2.828125zm9.281952 4.921875l0 -9.859375l1.5 0l0 1.390625q0.453125 -0.71875 1.21875 -1.15625q0.78125 -0.453125 1.765625 -0.453125q1.09375 0 1.796875 0.453125q0.703125 0.453125 0.984375 1.28125q1.171875 -1.734375 3.046875 -1.734375q1.46875 0 2.25 0.8125q0.796875 0.8125 0.796875 2.5l0 6.765625l-1.671875 0l0 -6.203125q0 -1.0 -0.15625 -1.4375q-0.15625 -0.453125 -0.59375 -0.71875q-0.421875 -0.265625 -1.0 -0.265625q-1.03125 0 -1.71875 0.6875q-0.6875 0.6875 -0.6875 2.21875l0 5.71875l-1.671875 0l0 -6.40625q0 -1.109375 -0.40625 -1.65625q-0.40625 -0.5625 -1.34375 -0.5625q-0.703125 0 -1.3125 0.375q-0.59375 0.359375 -0.859375 1.078125q-0.265625 0.71875 -0.265625 2.0625l0 5.109375l-1.671875 0z" fill-rule="nonzero">
		</path>
		<path fill="#000000" fill-opacity="0.0" d="m257.42783 461.30972l147.811 0l0 26.771637l-147.811 0z" fill-rule="evenodd">
		</path>
		<path fill="#000000" d="m301.61047 488.2297l0 -13.59375l1.796875 0l0 6.734375l6.765625 -6.734375l2.4375 0l-5.703125 5.5l5.953125 8.09375l-2.375 0l-4.84375 -6.890625l-2.234375 2.171875l0 4.71875l-1.796875 0zm12.318573 -11.6875l0 -1.90625l1.671875 0l0 1.90625l-1.671875 0zm0 11.6875l0 -9.859375l1.671875 0l0 9.859375l-1.671875 0zm7.785431 -1.5l0.234375 1.484375q-0.703125 0.140625 -1.265625 0.140625q-0.90625 0 -1.40625 -0.28125q-0.5 -0.296875 -0.703125 -0.75q-0.203125 -0.46875 -0.203125 -1.984375l0 -5.65625l-1.234375 0l0 -1.3125l1.234375 0l0 -2.4375l1.65625 -1.0l0 3.4375l1.6875 0l0 1.3125l-1.6875 0l0 5.75q0 0.71875 0.078125 0.921875q0.09375 0.203125 0.296875 0.328125q0.203125 0.125 0.578125 0.125q0.265625 0 0.734375 -0.078125zm7.964569 -2.109375l1.640625 0.21875q-0.265625 1.6875 -1.375 2.65625q-1.109375 0.953125 -2.734375 0.953125q-2.015625 0 -3.25 -1.3125q-1.21875 -1.328125 -1.21875 -3.796875q0 -1.59375 0.515625 -2.78125q0.53125 -1.203125 1.609375 -1.796875q1.09375 -0.609375 2.359375 -0.609375q1.609375 0 2.625 0.8125q1.015625 0.8125 1.3125 2.3125l-1.625 0.25q-0.234375 -1.0 -0.828125 -1.5q-0.59375 -0.5 -1.421875 -0.5q-1.265625 0 -2.0625 0.90625q-0.78125 0.90625 -0.78125 2.859375q0 1.984375 0.765625 2.890625q0.765625 0.890625 1.984375 0.890625q0.984375 0 1.640625 -0.59375q0.65625 -0.609375 0.84375 -1.859375zm2.890625 3.609375l0 -13.59375l1.671875 0l0 4.875q1.171875 -1.359375 2.953125 -1.359375q1.09375 0 1.890625 0.4375q0.8125 0.421875 1.15625 1.1875q0.359375 0.765625 0.359375 2.203125l0 6.25l-1.671875 0l0 -6.25q0 -1.25 -0.546875 -1.8125q-0.546875 -0.578125 -1.53125 -0.578125q-0.75 0 -1.40625 0.390625q-0.640625 0.375 -0.921875 1.046875q-0.28125 0.65625 -0.28125 1.8125l0 5.390625l-1.671875 0zm17.125702 -3.171875l1.71875 0.21875q-0.40625 1.5 -1.515625 2.34375q-1.09375 0.828125 -2.8125 0.828125q-2.15625 0 -3.421875 -1.328125q-1.265625 -1.328125 -1.265625 -3.734375q0 -2.484375 1.265625 -3.859375q1.28125 -1.375 3.328125 -1.375q1.984375 0 3.234375 1.34375q1.25 1.34375 1.25 3.796875q0 0.140625 -0.015625 0.4375l-7.34375 0q0.09375 1.625 0.921875 2.484375q0.828125 0.859375 2.0625 0.859375q0.90625 0 1.546875 -0.46875q0.65625 -0.484375 1.046875 -1.546875zm-5.484375 -2.703125l5.5 0q-0.109375 -1.234375 -0.625 -1.859375q-0.796875 -0.96875 -2.078125 -0.96875q-1.140625 0 -1.9375 0.78125q-0.78125 0.765625 -0.859375 2.046875zm9.110107 5.875l0 -9.859375l1.5 0l0 1.40625q1.09375 -1.625 3.140625 -1.625q0.890625 0 1.640625 0.328125q0.75 0.3125 1.109375 0.84375q0.375 0.515625 0.53125 1.21875q0.09375 0.46875 0.09375 1.625l0 6.0625l-1.671875 0l0 -6.0q0 -1.015625 -0.203125 -1.515625q-0.1875 -0.515625 -0.6875 -0.8125q-0.5 -0.296875 -1.171875 -0.296875q-1.0625 0 -1.84375 0.671875q-0.765625 0.671875 -0.765625 2.578125l0 5.375l-1.671875 0z" fill-rule="nonzero">
		</path>
		<path fill="#000000" fill-opacity="0.0" d="m581.8189 461.30972l147.81104 0l0 26.771637l-147.81104 0z" fill-rule="evenodd">
		</path>
		<path fill="#000000" d="m608.89844 488.2297l0 -13.59375l1.796875 0l0 11.984375l6.703125 0l0 1.609375l-8.5 0zm10.250732 -11.6875l0 -1.90625l1.671875 0l0 1.90625l-1.671875 0zm0 11.6875l0 -9.859375l1.671875 0l0 9.859375l-1.671875 0zm6.8635864 0l-3.75 -9.859375l1.765625 0l2.125 5.90625q0.34375 0.953125 0.625 1.984375q0.21875 -0.78125 0.625 -1.875l2.1875 -6.015625l1.71875 0l-3.734375 9.859375l-1.5625 0zm6.609375 -11.6875l0 -1.90625l1.671875 0l0 1.90625l-1.671875 0zm0 11.6875l0 -9.859375l1.671875 0l0 9.859375l-1.671875 0zm4.1292114 0l0 -9.859375l1.5 0l0 1.40625q1.09375 -1.625 3.140625 -1.625q0.890625 0 1.640625 0.328125q0.75 0.3125 1.109375 0.84375q0.375 0.515625 0.53125 1.21875q0.09375 0.46875 0.09375 1.625l0 6.0625l-1.671875 0l0 -6.0q0 -1.015625 -0.203125 -1.515625q-0.1875 -0.515625 -0.6875 -0.8125q-0.5 -0.296875 -1.171875 -0.296875q-1.0625 0 -1.84375 0.671875q-0.765625 0.671875 -0.765625 2.578125l0 5.375l-1.671875 0zm10.078796 0.8125l1.609375 0.25q0.109375 0.75 0.578125 1.09375q0.609375 0.453125 1.6875 0.453125q1.171875 0 1.796875 -0.46875q0.625 -0.453125 0.859375 -1.28125q0.125 -0.515625 0.109375 -2.15625q-1.09375 1.296875 -2.71875 1.296875q-2.03125 0 -3.15625 -1.46875q-1.109375 -1.46875 -1.109375 -3.515625q0 -1.40625 0.515625 -2.59375q0.515625 -1.203125 1.484375 -1.84375q0.96875 -0.65625 2.265625 -0.65625q1.75 0 2.875 1.40625l0 -1.1875l1.546875 0l0 8.515625q0 2.3125 -0.46875 3.265625q-0.46875 0.96875 -1.484375 1.515625q-1.015625 0.5625 -2.5 0.5625q-1.765625 0 -2.859375 -0.796875q-1.078125 -0.796875 -1.03125 -2.390625zm1.375 -5.921875q0 1.953125 0.765625 2.84375q0.78125 0.890625 1.9375 0.890625q1.140625 0 1.921875 -0.890625q0.78125 -0.890625 0.78125 -2.78125q0 -1.8125 -0.8125 -2.71875q-0.796875 -0.921875 -1.921875 -0.921875q-1.109375 0 -1.890625 0.90625q-0.78125 0.890625 -0.78125 2.671875zm14.465271 5.109375l0 -9.859375l1.5 0l0 1.5q0.578125 -1.046875 1.0625 -1.375q0.484375 -0.34375 1.078125 -0.34375q0.84375 0 1.71875 0.546875l-0.578125 1.546875q-0.609375 -0.359375 -1.234375 -0.359375q-0.546875 0 -0.984375 0.328125q-0.421875 0.328125 -0.609375 0.90625q-0.28125 0.890625 -0.28125 1.953125l0 5.15625l-1.671875 0zm5.6033325 -4.921875q0 -2.734375 1.53125 -4.0625q1.265625 -1.09375 3.09375 -1.09375q2.03125 0 3.3125 1.34375q1.296875 1.328125 1.296875 3.671875q0 1.90625 -0.578125 3.0q-0.5625 1.078125 -1.65625 1.6875q-1.078125 0.59375 -2.375 0.59375q-2.0625 0 -3.34375 -1.328125q-1.28125 -1.328125 -1.28125 -3.8125zm1.71875 0q0 1.890625 0.828125 2.828125q0.828125 0.9375 2.078125 0.9375q1.25 0 2.0625 -0.9375q0.828125 -0.953125 0.828125 -2.890625q0 -1.828125 -0.828125 -2.765625q-0.828125 -0.9375 -2.0625 -0.9375q-1.25 0 -2.078125 0.9375q-0.828125 0.9375 -0.828125 2.828125zm8.656982 0q0 -2.734375 1.53125 -4.0625q1.265625 -1.09375 3.09375 -1.09375q2.03125 0 3.3125 1.34375q1.296875 1.328125 1.296875 3.671875q0 1.90625 -0.578125 3.0q-0.5625 1.078125 -1.65625 1.6875q-1.078125 0.59375 -2.375 0.59375q-2.0625 0 -3.34375 -1.328125q-1.28125 -1.328125 -1.28125 -3.8125zm1.71875 0q0 1.890625 0.828125 2.828125q0.828125 0.9375 2.078125 0.9375q1.25 0 2.0625 -0.9375q0.828125 -0.953125 0.828125 -2.890625q0 -1.828125 -0.828125 -2.765625q-0.828125 -0.9375 -2.0625 -0.9375q-1.25 0 -2.078125 0.9375q-0.828125 0.9375 -0.828125 2.828125zm9.281921 4.921875l0 -9.859375l1.5 0l0 1.390625q0.453125 -0.71875 1.21875 -1.15625q0.78125 -0.453125 1.765625 -0.453125q1.09375 0 1.796875 0.453125q0.703125 0.453125 0.984375 1.28125q1.171875 -1.734375 3.046875 -1.734375q1.46875 0 2.25 0.8125q0.796875 0.8125 0.796875 2.5l0 6.765625l-1.671875 0l0 -6.203125q0 -1.0 -0.15625 -1.4375q-0.15625 -0.453125 -0.59375 -0.71875q-0.421875 -0.265625 -1.0 -0.265625q-1.03125 0 -1.71875 0.6875q-0.6875 0.6875 -0.6875 2.21875l0 5.71875l-1.671875 0l0 -6.40625q0 -1.109375 -0.40625 -1.65625q-0.40625 -0.5625 -1.34375 -0.5625q-0.703125 0 -1.3125 0.375q-0.59375 0.359375 -0.859375 1.078125q-0.265625 0.71875 -0.265625 2.0625l0 5.109375l-1.671875 0z" fill-rule="nonzero">
		</path>
		<path class= "light" fill="#ffffff" d="m351.08398 261.23883l-39.501312 0l7.9002686 -25.897629l23.700775 0z" fill-rule="evenodd">
		</path>
		<path stroke="#000000" stroke-width="1.0" stroke-linejoin="round" stroke-linecap="butt" d="m351.08398 261.23883l-39.501312 0l7.9002686 -25.897629l23.700775 0z" fill-rule="evenodd">
		</path>
		<path class= "light" fill="#ffffff" d="m351.08398 520.3517l-39.501312 0l7.9002686 -25.897614l23.700775 0z" fill-rule="evenodd">
		</path>
		<path stroke="#000000" stroke-width="1.0" stroke-linejoin="round" stroke-linecap="butt" d="m351.08398 520.3517l-39.501312 0l7.9002686 -25.897614l23.700775 0z" fill-rule="evenodd">
		</path>
		<path class="light" fill="#ffffff" d="m675.47504 520.3517l-39.50128 0l7.9002686 -25.897614l23.700806 0z" fill-rule="evenodd">
		</path>
		<path stroke="#000000" stroke-width="1.0" stroke-linejoin="round" stroke-linecap="butt" d="m675.47504 520.3517l-39.50128 0l7.9002686 -25.897614l23.700806 0z" fill-rule="evenodd">
		</path>
		<path fill="#ffffff" d="m520.6365 206.01837l270.17322 0l0 229.38583l-270.17322 0z" fill-rule="evenodd">
		</path>
		<path stroke="#000000" stroke-width="1.0" stroke-linejoin="round" stroke-linecap="butt" d="m520.6365 206.01837l270.17322 0l0 229.38583l-270.17322 0z" fill-rule="evenodd">
		</path>
		<path fill="#ffffff" d="m675.47504 553.063l99.40161 0l0 61.165344l-99.40161 0z" fill-rule="evenodd">
		</path>
		<path stroke="#000000" stroke-width="1.0" stroke-linejoin="round" stroke-linecap="butt" d="m675.47504 553.063l99.40161 0l0 61.165344l-99.40161 0z" fill-rule="evenodd">
		</path>
		<path fill="#ffffff" d="m683.47504 557.8819l83.40161 0l0 51.527527l-83.40161 0z" fill-rule="evenodd">
		</path>
		<path stroke="#000000" stroke-width="1.0" stroke-linejoin="round" stroke-linecap="butt" d="m683.47504 557.8819l83.40161 0l0 51.527527l-83.40161 0z" fill-rule="evenodd">
		</path>
		<path fill="#ffffff" d="m545.4147 350.8294l39.496094 0l0 31.873993l-39.496094 0z" fill-rule="evenodd">
		</path>
		<path stroke="#000000" stroke-width="1.0" stroke-linejoin="round" stroke-linecap="butt" d="m545.4147 350.8294l39.496094 0l0 31.873993l-39.496094 0z" fill-rule="evenodd">
		</path>
		<path fill="#ffffff" d="m593.8478 401.4147l-9.6866455 -18.711304l-38.74646 0l9.6866455 18.711304z" fill-rule="evenodd">
		</path>
		<path stroke="#000000" stroke-width="1.0" stroke-linejoin="round" stroke-linecap="butt" d="m593.8478 401.4147l-9.6866455 -18.711304l-38.74646 0l9.6866455 18.711304z" fill-rule="evenodd">
		</path>
		<path fill="#ffffff" d="m550.5171 357.41208l29.29132 0l0 18.708649l-29.29132 0z" fill-rule="evenodd">
		</path>
		<path stroke="#000000" stroke-width="1.0" stroke-linejoin="round" stroke-linecap="butt" d="m550.5171 357.41208l29.29132 0l0 18.708649l-29.29132 0z" fill-rule="evenodd">
		</path>
		<path fill="#ffffff" d="m237.66142 373.55246l73.92125 0l0 28.818878l-73.92125 0z" fill-rule="evenodd">
		</path>
		<path stroke="#000000" stroke-width="1.0" stroke-linejoin="round" stroke-linecap="butt" d="m237.66142 373.55246l73.92125 0l0 28.818878l-73.92125 0z" fill-rule="evenodd">
		</path>
		<path fill="#ffffff" d="m244.118 387.94852l0 0c0 -5.096649 4.420746 -9.2283325 9.874008 -9.2283325l0 0c5.4532776 0 9.874023 4.1316833 9.874023 9.2283325l0 0c0 5.0966797 -4.420746 9.228363 -9.874023 9.228363l0 0c-5.4532623 0 -9.874008 -4.1316833 -9.874008 -9.228363z" fill-rule="evenodd">
		</path>
		<path stroke="#000000" stroke-width="1.0" stroke-linejoin="round" stroke-linecap="butt" d="m244.118 387.94852l0 0c0 -5.096649 4.420746 -9.2283325 9.874008 -9.2283325l0 0c5.4532776 0 9.874023 4.1316833 9.874023 9.2283325l0 0c0 5.0966797 -4.420746 9.228363 -9.874023 9.228363l0 0c-5.4532623 0 -9.874008 -4.1316833 -9.874008 -9.228363z" fill-rule="evenodd">
		</path>
		<path fill="#ffffff" d="m249.26839 387.95602l0 0c0 -2.5135498 2.1151886 -4.551178 4.7243958 -4.551178l0 0c1.253006 0 2.4546661 0.4794922 3.340683 1.3330078c0.8859863 0.8535156 1.383728 2.011139 1.383728 3.2181702l0 0c0 2.5135498 -2.1151733 4.551178 -4.724411 4.551178l0 0c-2.6092072 0 -4.7243958 -2.0376282 -4.7243958 -4.551178z" fill-rule="evenodd">
		</path>
		<path stroke="#000000" stroke-width="1.0" stroke-linejoin="round" stroke-linecap="butt" d="m249.26839 387.95602l0 0c0 -2.5135498 2.1151886 -4.551178 4.7243958 -4.551178l0 0c1.253006 0 2.4546661 0.4794922 3.340683 1.3330078c0.8859863 0.8535156 1.383728 2.011139 1.383728 3.2181702l0 0c0 2.5135498 -2.1151733 4.551178 -4.724411 4.551178l0 0c-2.6092072 0 -4.7243958 -2.0376282 -4.7243958 -4.551178z" fill-rule="evenodd">
		</path>
		<path fill="#ffffff" d="m284.12466 387.94852l0 0c0 -5.096649 4.420746 -9.2283325 9.874023 -9.2283325l0 0c5.4532776 0 9.874023 4.1316833 9.874023 9.2283325l0 0c0 5.0966797 -4.420746 9.228363 -9.874023 9.228363l0 0c-5.4532776 0 -9.874023 -4.1316833 -9.874023 -9.228363z" fill-rule="evenodd">
		</path>
		<path stroke="#000000" stroke-width="1.0" stroke-linejoin="round" stroke-linecap="butt" d="m284.12466 387.94852l0 0c0 -5.096649 4.420746 -9.2283325 9.874023 -9.2283325l0 0c5.4532776 0 9.874023 4.1316833 9.874023 9.2283325l0 0c0 5.0966797 -4.420746 9.228363 -9.874023 9.228363l0 0c-5.4532776 0 -9.874023 -4.1316833 -9.874023 -9.228363z" fill-rule="evenodd">
		</path>
		<path fill="#ffffff" d="m289.27505 387.95602l0 0c0 -2.5135498 2.1152039 -4.551178 4.7244263 -4.551178l0 0c1.2529907 0 2.4546509 0.4794922 3.3406372 1.3330078c0.88601685 0.8535156 1.3837585 2.011139 1.3837585 3.2181702l0 0c0 2.5135498 -2.1152039 4.551178 -4.7243958 4.551178l0 0c-2.6092224 0 -4.7244263 -2.0376282 -4.7244263 -4.551178z" fill-rule="evenodd">
		</path>
		<path stroke="#000000" stroke-width="1.0" stroke-linejoin="round" stroke-linecap="butt" d="m289.27505 387.95602l0 0c0 -2.5135498 2.1152039 -4.551178 4.7244263 -4.551178l0 0c1.2529907 0 2.4546509 0.4794922 3.3406372 1.3330078c0.88601685 0.8535156 1.3837585 2.011139 1.3837585 3.2181702l0 0c0 2.5135498 -2.1152039 4.551178 -4.7243958 4.551178l0 0c-2.6092224 0 -4.7244263 -2.0376282 -4.7244263 -4.551178z" fill-rule="evenodd">
		</path>
		<path fill="#000000" fill-opacity="0.0" d="m249.26839 350.8294l15.464554 23.62204" fill-rule="evenodd">
		</path>
		<path stroke="#000000" stroke-width="1.0" stroke-linejoin="round" stroke-linecap="butt" d="m249.26839 350.8294l15.464554 23.62204" fill-rule="evenodd">
		</path>
		<path fill="#000000" fill-opacity="0.0" d="m278.90878 374.01678l18.047241 -22.740143" fill-rule="evenodd">
		</path>
		<path stroke="#000000" stroke-width="1.0" stroke-linejoin="round" stroke-linecap="butt" d="m278.90878 374.01678l18.047241 -22.740143" fill-rule="evenodd">
		</path>
		<path fill="#000000" fill-opacity="0.0" d="m588.8268 206.01837l133.79529 0l0 31.874023l-133.79529 0z" fill-rule="evenodd">
		</path>
		<path fill="#000000" d="m632.28296 226.31337q0 -3.390625 1.8125 -5.296875q1.828125 -1.921875 4.703125 -1.921875q1.875 0 3.390625 0.90625q1.515625 0.890625 2.296875 2.5q0.796875 1.609375 0.796875 3.65625q0 2.0625 -0.84375 3.703125q-0.828125 1.625 -2.359375 2.46875q-1.53125 0.84375 -3.296875 0.84375q-1.921875 0 -3.4375 -0.921875q-1.5 -0.9375 -2.28125 -2.53125q-0.78125 -1.609375 -0.78125 -3.40625zm1.859375 0.03125q0 2.453125 1.3125 3.875q1.328125 1.40625 3.3125 1.40625q2.03125 0 3.34375 -1.421875q1.3125 -1.4375 1.3125 -4.0625q0 -1.65625 -0.5625 -2.890625q-0.546875 -1.234375 -1.640625 -1.921875q-1.078125 -0.6875 -2.421875 -0.6875q-1.90625 0 -3.28125 1.3125q-1.375 1.3125 -1.375 4.390625zm13.386414 6.59375l0 -8.546875l-1.484375 0l0 -1.3125l1.484375 0l0 -1.046875q0 -0.984375 0.171875 -1.46875q0.234375 -0.65625 0.84375 -1.046875q0.609375 -0.40625 1.703125 -0.40625q0.703125 0 1.5625 0.15625l-0.25 1.46875q-0.515625 -0.09375 -0.984375 -0.09375q-0.765625 0 -1.078125 0.328125q-0.3125 0.3125 -0.3125 1.203125l0 0.90625l1.921875 0l0 1.3125l-1.921875 0l0 8.546875l-1.65625 0zm5.1832886 0l0 -8.546875l-1.484375 0l0 -1.3125l1.484375 0l0 -1.046875q0 -0.984375 0.171875 -1.46875q0.234375 -0.65625 0.84375 -1.046875q0.609375 -0.40625 1.703125 -0.40625q0.703125 0 1.5625 0.15625l-0.25 1.46875q-0.515625 -0.09375 -0.984375 -0.09375q-0.765625 0 -1.078125 0.328125q-0.3125 0.3125 -0.3125 1.203125l0 0.90625l1.921875 0l0 1.3125l-1.921875 0l0 8.546875l-1.65625 0zm4.7926636 -11.6875l0 -1.90625l1.671875 0l0 1.90625l-1.671875 0zm0 11.6875l0 -9.859375l1.671875 0l0 9.859375l-1.671875 0zm10.566711 -3.609375l1.640625 0.21875q-0.265625 1.6875 -1.375 2.65625q-1.109375 0.953125 -2.734375 0.953125q-2.015625 0 -3.25 -1.3125q-1.21875 -1.328125 -1.21875 -3.796875q0 -1.59375 0.515625 -2.78125q0.53125 -1.203125 1.609375 -1.796875q1.09375 -0.609375 2.359375 -0.609375q1.609375 0 2.625 0.8125q1.015625 0.8125 1.3125 2.3125l-1.625 0.25q-0.234375 -1.0 -0.828125 -1.5q-0.59375 -0.5 -1.421875 -0.5q-1.265625 0 -2.0625 0.90625q-0.78125 0.90625 -0.78125 2.859375q0 1.984375 0.765625 2.890625q0.765625 0.890625 1.984375 0.890625q0.984375 0 1.640625 -0.59375q0.65625 -0.609375 0.84375 -1.859375zm9.640625 0.4375l1.71875 0.21875q-0.40625 1.5 -1.515625 2.34375q-1.09375 0.828125 -2.8125 0.828125q-2.15625 0 -3.421875 -1.328125q-1.265625 -1.328125 -1.265625 -3.734375q0 -2.484375 1.265625 -3.859375q1.28125 -1.375 3.328125 -1.375q1.984375 0 3.234375 1.34375q1.25 1.34375 1.25 3.796875q0 0.140625 -0.015625 0.4375l-7.34375 0q0.09375 1.625 0.921875 2.484375q0.828125 0.859375 2.0625 0.859375q0.90625 0 1.546875 -0.46875q0.65625 -0.484375 1.046875 -1.546875zm-5.484375 -2.703125l5.5 0q-0.109375 -1.234375 -0.625 -1.859375q-0.796875 -0.96875 -2.078125 -0.96875q-1.140625 0 -1.9375 0.78125q-0.78125 0.765625 -0.859375 2.046875z" fill-rule="nonzero">
		</path>
		<path class="light" fill="#ffffff" d="m675.47504 263.79004l-39.50128 0l7.9002686 -25.897644l23.700806 0z" fill-rule="evenodd">
		</path>
		<path stroke="#000000" stroke-width="1.0" stroke-linejoin="round" stroke-linecap="butt" d="m675.47504 263.79004l-39.50128 0l7.9002686 -25.897644l23.700806 0z" fill-rule="evenodd">
		</path>
		<path fill="#ffffff" d="m216.6378 584.92126l94.92912 0l0 85.3858l-94.92912 0z" fill-rule="evenodd">
		</path>
		<path stroke="#000000" stroke-width="1.0" stroke-linejoin="round" stroke-linecap="butt" d="m216.6378 584.92126l94.92912 0l0 85.3858l-94.92912 0z" fill-rule="evenodd">
		</path>
		<path fill="#ffffff" d="m313.48557 584.65356l-96.84776 0l19.369553 -20.123352l58.108643 0z" fill-rule="evenodd">
		</path>
		<path stroke="#000000" stroke-width="1.0" stroke-linejoin="round" stroke-linecap="butt" d="m313.48557 584.65356l-96.84776 0l19.369553 -20.123352l58.108643 0z" fill-rule="evenodd">
		</path>
		<path fill="#ffffff" d="m237.66142 544.1522l56.72441 0l0 20.125977l-56.72441 0z" fill-rule="evenodd">
		</path>
		<path stroke="#000000" stroke-width="1.0" stroke-linejoin="round" stroke-linecap="butt" d="m237.66142 544.1522l56.72441 0l0 20.125977l-56.72441 0z" fill-rule="evenodd">
		</path>
		<path fill="#ffffff" d="m234.47769 608.8007l0 0c0 -4.743103 3.8450165 -8.588135 8.588104 -8.588135l42.72931 0c2.27771 0 4.4621277 0.9048462 6.072693 2.5153809c1.6105957 1.6105957 2.5154114 3.795044 2.5154114 6.072754l0 34.35132c0 4.743103 -3.8450317 8.588135 -8.588104 8.588135l-42.72931 0c-4.743088 0 -8.588104 -3.8450317 -8.588104 -8.588135z" fill-rule="evenodd">
		</path>
		<path stroke="#000000" stroke-width="1.0" stroke-linejoin="round" stroke-linecap="butt" d="m234.47769 608.8007l0 0c0 -4.743103 3.8450165 -8.588135 8.588104 -8.588135l42.72931 0c2.27771 0 4.4621277 0.9048462 6.072693 2.5153809c1.6105957 1.6105957 2.5154114 3.795044 2.5154114 6.072754l0 34.35132c0 4.743103 -3.8450317 8.588135 -8.588104 8.588135l-42.72931 0c-4.743088 0 -8.588104 -3.8450317 -8.588104 -8.588135z" fill-rule="evenodd">
		</path>
	</g>
</svg>

